<?xml version="1.0" encoding="iso-8859-1"?>
<!-- Generator: Adobe Illustrator 19.0.0, SVG Export Plug-In . SVG Version: 6.00 Build 0)  -->
<svg version="1.1" id="Layer_1" xmlns="http://www.w3.org/2000/svg" xmlns:xlink="http://www.w3.org/1999/xlink" x="0px" y="0px"
	 viewBox="0 0 512 512" style="enable-background:new 0 0 512 512;" xml:space="preserve">
<path style="fill:#FFCF00;" d="M369.743,27.083l-0.001-0.008c-52.833,0-87.335,0-140.7,0.008h-80.761h-6.538H8.348
	c0,59.119,32.948,112.279,84.962,132.644l54.565,0.601c4.255,15.748,10.358,30.541,20.24,45.331
	c8.626,10.758,16.175,20.441,28.034,27.97c7.548,4.304,15.094,8.607,23.72,11.834c1.361,0.339,2.723,0.679,4.083,1.018v32.395
	h17.172v146.688l-0.002,0.659c-26.298,6.637-45.758,30.399-45.758,58.702h121.373c0-27.99-19.033-51.541-44.89-58.476l-0.001-0.884
	V278.876h17.253v-32.674c10.997-3.039,21.251-7.745,31.045-14.724c10.782-8.606,19.408-18.288,26.956-30.122
	c4.313-6.453,7.548-13.984,10.782-20.441c2.66-7.024,4.923-14.187,6.846-21.452l53.961,0.263
	c52.016-20.363,84.964-73.522,84.964-132.642H369.743z M142.237,128.209H95.746C68.535,111.879,47.789,83.562,43.25,55.245h97.898
	L142.237,128.209z M370.997,55.245h97.755c-4.541,28.317-25.287,56.634-52.499,72.964h-45.365L370.997,55.245z"/>
<polygon style="fill:#0088FF;" points="141.959,128.179 96.796,128.179 96.796,373.08 117.776,353.222 141.5,373.601 "/>
<path style="fill:#ECB300;" d="M369.743,27.083l-0.001-0.008c-43.41,0-74.452,0-113.742,0.004v457.845h60.737
	c0-27.99-19.033-51.541-44.89-58.476l-0.001-0.884V278.876h17.253v-32.674c10.997-3.039,21.251-7.745,31.045-14.724
	c10.782-8.606,19.408-18.288,26.956-30.122c4.313-6.453,7.548-13.984,10.782-20.441c2.66-7.024,4.923-14.187,6.846-21.452
	l53.961,0.264c52.015-20.364,84.963-73.523,84.963-132.644H369.743z M372.571,55.245h96.18
	c-4.541,28.317-25.287,56.634-52.498,72.964h-45.365"/>
<polygon style="fill:#005FD3;" points="416.16,128.179 370.997,128.179 370.997,373.08 391.978,353.222 415.703,373.601 "/>
<path style="fill:#3C3A41;" d="M503.652,18.735H370.099c-0.118-0.006-0.237-0.008-0.356-0.008c-1.69,0-3.358,0-5.012,0
	c-0.001,0-0.003,0-0.004,0c-50.046,0-84.027,0-135.686,0.008c-4.61,0.001-8.348,3.739-8.347,8.349c0,4.611,3.739,8.348,8.349,8.347
	c48.733-0.007,81.74-0.008,127.338-0.008v122.943c-1.798,6.658-3.867,13.111-6.157,19.201c-0.747,1.5-1.496,3.054-2.258,4.637
	c-2.397,4.98-4.877,10.13-7.807,14.513c-0.033,0.049-0.066,0.099-0.097,0.149c-7.077,11.096-15.007,19.981-24.946,27.944
	c-8.621,6.111-17.86,10.477-28.24,13.344c-0.002,0-0.004,0.002-0.007,0.002c-5.309,1.467-10.815,2.534-16.819,3.261h-13.521
	c-0.394,0-0.787,0.028-1.178,0.083c-1.685,0.24-3.595,0.362-5.678,0.362c-5.021,0-10.484-0.7-15.264-1.378l-8.431-2.103
	c-0.002,0-0.004-0.002-0.008-0.002l-3.611-0.902c-7.752-2.946-14.628-6.855-21.9-11.002c-10.183-6.51-17.022-15.044-24.932-24.917
	l-0.672-0.839c-9.717-14.602-15.659-27.775-18.648-41.354l-2.084-123.936h23.758c4.61,0,8.348-3.736,8.348-8.348
	s-3.738-8.348-8.348-8.348h-31.885c-0.119-0.006-0.239-0.008-0.36-0.008c-0.12-0.001-0.242,0.002-0.361,0.008H8.348
	C3.738,18.735,0,22.471,0,27.083c0,30.797,8.395,60.302,24.275,85.328c15.793,24.885,37.959,43.624,64.173,54.334v206.336
	c0,3.335,1.985,6.35,5.048,7.668c3.063,1.319,6.616,0.688,9.039-1.604l15.512-14.683l18.013,15.474
	c1.544,1.326,3.482,2.016,5.442,2.016c1.178,0,2.363-0.249,3.476-0.759c2.963-1.358,4.865-4.314,4.871-7.574l0.341-182.045
	c3.058,6.108,6.697,12.307,10.985,18.725c0.135,0.201,0.278,0.396,0.429,0.585l0.897,1.12c8.515,10.627,16.557,20.665,29.176,28.676
	c0.111,0.07,0.239,0.147,0.354,0.211c7.327,4.178,14.894,8.493,23.575,11.881v26.108c0,4.611,3.738,8.348,8.348,8.348h8.825V420.04
	c-27.246,9.695-45.761,35.506-45.761,64.885c0,4.611,3.738,8.348,8.348,8.348h121.373c4.61,0,8.348-3.736,8.348-8.348
	c0-28.93-18.163-54.619-44.892-64.564V287.225h8.905c4.61,0,8.348-3.736,8.348-8.348v-26.506
	c9.924-3.355,18.983-7.995,27.542-14.093c0.124-0.089,0.245-0.18,0.363-0.275c11.48-9.163,20.614-19.36,28.739-32.085
	c3.391-5.09,6.133-10.693,8.558-15.726v182.889c0,3.335,1.985,6.349,5.048,7.668c3.063,1.319,6.616,0.688,9.039-1.604l15.514-14.683
	l18.015,15.474c1.544,1.326,3.482,2.016,5.441,2.016c1.178,0,2.363-0.249,3.476-0.759c2.963-1.358,4.865-4.315,4.871-7.574
	l0.386-207.239c25.826-10.77,47.673-29.362,63.287-53.967C503.605,87.385,512,57.879,512,27.083
	C512,22.472,508.262,18.735,503.652,18.735z M138.844,119.83H98.061c-21.246-13.409-37.774-34.577-44.327-56.238h84.164
	L138.844,119.83z M16.922,35.431h120.504l0.193,11.467H43.248c-2.444,0-4.767,1.072-6.353,2.933c-1.586,1.86-2.276,4.323-1.89,6.737
	c4.675,29.161,25.499,59.004,53.442,76.932v14.999C46.877,128.606,19.649,85.628,16.922,35.431z M123.215,346.889
	c-1.568-1.347-3.505-2.016-5.438-2.016c-2.069,0-4.134,0.766-5.74,2.285l-6.893,6.525V136.557h28.452l-0.41,218.898L123.215,346.889
	z M263.497,426.459c0.004,3.774,2.54,7.074,6.185,8.053c20.054,5.378,34.784,22.074,38.033,42.065H204.378
	c3.271-20.304,18.306-37.091,38.786-42.261c3.698-0.933,6.292-4.252,6.305-8.066l0.002-139.025h14.025v138.35V426.459z
	 M280.751,270.53h-8.905h-30.721h-8.825v-13.478c5.293,0.747,11.368,1.509,17.375,1.509c2.669,0,5.103-0.147,7.417-0.445h13.454
	c0.325,0,0.651-0.02,0.974-0.057c3.181-0.374,6.246-0.834,9.23-1.385v13.855H280.751z M413.939,119.83h-40.862V63.593h85.19
	C451.713,85.254,435.184,106.422,413.939,119.83z M397.418,346.889c-1.567-1.347-3.504-2.016-5.438-2.016
	c-2.068,0-4.134,0.766-5.74,2.285l-6.895,6.526V136.557h28.453l-0.039,20.64c-0.242,0.768-0.376,1.584-0.384,2.432
	c-0.008,0.886,0.126,1.741,0.374,2.544l-0.361,193.281L397.418,346.889z M424.471,148.058l0.028-15.183
	c27.463-17.991,47.872-47.48,52.494-76.309c0.387-2.414-0.303-4.876-1.89-6.737c-1.586-1.861-3.908-2.933-6.353-2.933h-95.676
	V35.431h122.003C492.373,85.256,465.524,127.975,424.471,148.058z"/>
<g>
</g>
<g>
</g>
<g>
</g>
<g>
</g>
<g>
</g>
<g>
</g>
<g>
</g>
<g>
</g>
<g>
</g>
<g>
</g>
<g>
</g>
<g>
</g>
<g>
</g>
<g>
</g>
<g>
</g>
</svg>
