<?xml version="1.0" encoding="iso-8859-1"?>
<svg xmlns="http://www.w3.org/2000/svg" viewBox="0 0 50 50">
    <path d="M30.905,26.411c-0.826,0.012,0.156,0.425,1.233,0.591c0.298-0.232,0.568-0.467,0.808-0.696	C32.277,26.47,31.593,26.474,30.905,26.411 M35.334,25.307c0.491-0.678,0.849-1.42,0.976-2.188c-0.111,0.548-0.407,1.02-0.687,1.519	c-1.543,0.971-0.145-0.577-0.001-1.165C33.963,25.56,35.395,24.724,35.334,25.307 M36.969,21.053c0.1-1.486-0.293-1.016-0.424-0.449	C36.698,20.684,36.82,21.652,36.969,21.053 M27.777,0.746c0.44,0.079,0.951,0.139,0.879,0.245	C29.139,0.886,29.248,0.788,27.777,0.746 M28.657,0.991l-0.312,0.065l0.29-0.026L28.657,0.991 M42.386,21.617	c0.049,1.334-0.39,1.982-0.787,3.128l-0.713,0.357c-0.584,1.133,0.057,0.719-0.361,1.62c-0.911,0.81-2.764,2.534-3.358,2.692	c-0.433-0.01,0.294-0.511,0.388-0.707c-1.22,0.837-0.978,1.257-2.843,1.766l-0.055-0.121c-4.6,2.164-10.989-2.124-10.904-7.976	c-0.049,0.371-0.139,0.279-0.242,0.429c-0.237-3.01,1.39-6.035,4.136-7.269c2.685-1.329,5.833-0.784,7.756,1.009	c-1.057-1.384-3.159-2.851-5.651-2.714c-2.441,0.039-4.725,1.59-5.487,3.274c-1.251,0.788-1.396,3.035-1.941,3.447	c-0.733,5.388,1.379,7.717,4.952,10.455c0.563,0.379,0.158,0.436,0.235,0.725c-1.187-0.556-2.274-1.395-3.169-2.423	c0.474,0.694,0.986,1.369,1.648,1.899c-1.119-0.379-2.615-2.713-3.051-2.807c1.93,3.455,7.829,6.059,10.918,4.767	c-1.429,0.053-3.245,0.03-4.851-0.565c-0.674-0.348-1.591-1.067-1.428-1.201c4.215,1.574,8.57,1.193,12.218-1.732	c0.928-0.723,1.942-1.952,2.235-1.969c-0.441,0.663,0.076,0.319-0.264,0.905c0.925-1.491-0.401-0.607,0.956-2.575l0.501,0.69	c-0.186-1.238,1.538-2.741,1.362-4.698c0.395-0.598,0.441,0.644,0.022,2.022c0.583-1.528,0.153-1.774,0.303-3.034	c0.161,0.424,0.373,0.874,0.483,1.321c-0.379-1.477,0.389-2.487,0.58-3.345c-0.187-0.083-0.586,0.653-0.676-1.091	c0.013-0.758,0.211-0.397,0.287-0.584c-0.148-0.086-0.539-0.666-0.777-1.78c0.172-0.262,0.46,0.678,0.694,0.717	c-0.15-0.885-0.41-1.561-0.42-2.241c-0.684-1.43-0.242,0.19-0.797-0.613c-0.728-2.272,0.604-0.527,0.694-1.559	c1.103,1.599,1.733,4.078,2.022,5.104c-0.22-1.252-0.577-2.464-1.012-3.637c0.336,0.141-0.54-2.575,0.436-0.777	c-1.043-3.835-4.46-7.418-7.605-9.099c0.384,0.353,0.87,0.795,0.696,0.863c-1.563-0.931-1.289-1.004-1.513-1.397	c-1.274-0.519-1.357,0.042-2.202,0.001c-2.401-1.274-2.864-1.138-5.074-1.936l0.101,0.47c-1.591-0.53-1.853,0.201-3.573,0.002	c-0.105-0.082,0.551-0.296,1.09-0.374c-1.539,0.203-1.466-0.303-2.971,0.056c0.371-0.26,0.763-0.432,1.159-0.654	c-1.255,0.077-2.994,0.73-2.458,0.135c-2.045,0.913-5.679,2.194-7.719,4.106l-0.065-0.428c-0.934,1.121-4.074,3.35-4.325,4.803	L11.72,9.132c-0.486,0.824-0.801,1.757-1.186,2.603c-0.636,1.083-0.932,0.417-0.841,0.587c-1.251,2.535-1.872,4.666-2.409,6.414	c0.382,0.572,0.009,3.442,0.153,5.738c-0.628,11.343,7.961,22.355,17.348,24.898c1.376,0.492,3.423,0.473,5.162,0.524	c-2.053-0.588-2.319-0.312-4.32-1.009c-1.443-0.679-1.76-1.456-2.781-2.342l0.404,0.715c-2.005-0.709-1.166-0.878-2.796-1.394	l0.432-0.565c-0.649-0.049-1.721-1.095-2.014-1.674l-0.711,0.028c-0.854-1.054-1.309-1.813-1.276-2.401l-0.23,0.409	c-0.26-0.447-3.142-3.951-1.647-3.136c-0.278-0.254-0.647-0.413-1.048-1.14l0.305-0.348c-0.719-0.925-1.324-2.112-1.279-2.508	c0.383,0.519,0.65,0.615,0.913,0.704c-1.816-4.508-1.919-0.248-3.294-4.589l0.291-0.024c-0.223-0.336-0.359-0.701-0.538-1.06	l0.126-1.263c-1.309-1.513-0.365-6.43-0.177-9.128c0.13-1.096,1.091-2.265,1.822-4.096l-0.443-0.076	c0.851-1.485,4.861-5.963,6.717-5.733c0.899-1.13-0.178-0.004-0.355-0.289c1.976-2.044,2.597-1.444,3.931-1.812	c1.438-0.853-1.234,0.333-0.553-0.326c2.486-0.635,1.762-1.444,5.004-1.766c0.342,0.194-0.794,0.301-1.078,0.554	c2.071-1.014,6.554-0.783,9.465,0.563c3.379,1.579,7.175,6.247,7.324,10.638l0.17,0.046c-0.087,1.746,0.267,3.764-0.346,5.619	L42.386,21.617 M21.9,27.543l-0.116,0.579c0.542,0.737,0.972,1.535,1.665,2.11C22.952,29.259,22.581,28.858,21.9,27.543 M23.183,27.493c-0.287-0.318-0.457-0.699-0.647-1.079c0.182,0.669,0.554,1.244,0.901,1.828L23.183,27.493 M45.865,22.563	l-0.121,0.304c-0.222,1.578-0.702,3.141-1.438,4.589C45.119,25.927,45.645,24.256,45.865,22.563 M27.941,0.351	c0.558-0.204,1.371-0.112,1.963-0.247c-0.772,0.065-1.539,0.104-2.297,0.201L27.941,0.351 M8.357,10.764	c0.128,1.19-0.895,1.652,0.227,0.867C9.184,10.277,8.348,11.257,8.357,10.764 M7.038,16.272c0.259-0.794,0.306-1.27,0.404-1.729	C6.727,15.456,7.113,15.651,7.038,16.272"></path>
</svg>