<?xml version="1.0" encoding="iso-8859-1"?>
<!-- Generator: Adobe Illustrator 19.0.0, SVG Export Plug-In . SVG Version: 6.00 Build 0)  -->
<svg xmlns="http://www.w3.org/2000/svg" xmlns:xlink="http://www.w3.org/1999/xlink" version="1.1" x="0px" y="0px" viewBox="0 0 470 470" style="enable-background:new 0 0 470 470;" xml:space="preserve">
<g>
	<path style="fill:#000;" d="M401.018,425.747V44.253c0-15.296-7.802-28.802-19.634-36.754C374.34,2.767,365.87,0,356.765,0   c-4.143,0-7.5,3.358-7.5,7.5c0,4.142,3.357,7.5,7.5,7.5c16.13,0,29.253,13.123,29.253,29.253v381.493   c0,16.13-13.123,29.253-29.253,29.253c-4.143,0-7.5,3.358-7.5,7.5c0,4.142,3.357,7.5,7.5,7.5c9.106,0,17.576-2.767,24.619-7.5   C393.216,454.548,401.018,441.042,401.018,425.747z"/>
	<path style="fill:#FFFFFF;" d="M332.018,44.253c0-16.13-13.123-29.253-29.253-29.253H60.235c-16.13,0-29.253,13.123-29.253,29.253   v381.493c0,16.13,13.123,29.253,29.253,29.253h243.529c16.13,0,29.253-13.123,29.253-29.253V44.253z"/>
	<path style="fill:#000;" d="M348.018,425.747V44.253c0-15.296-7.802-28.802-19.634-36.754C321.34,2.767,312.87,0,303.765,0   H60.235C35.834,0,15.982,19.852,15.982,44.253v381.493c0,24.401,19.852,44.253,44.253,44.253h243.529   c9.106,0,17.576-2.767,24.619-7.5C340.216,454.548,348.018,441.042,348.018,425.747z M303.765,455H60.235   c-16.13,0-29.253-13.123-29.253-29.253V44.253C30.982,28.123,44.105,15,60.235,15h243.529c16.13,0,29.253,13.123,29.253,29.253   v381.493C333.018,441.877,319.895,455,303.765,455z"/>
</g>
</svg>