<svg xmlns="http://www.w3.org/2000/svg" viewBox="0 0 445.62 344.41">
  <title>Asset 10</title>
  <g id="Layer_2" data-name="Layer 2">
    <g id="Layer_3_copy_2" data-name="Layer 3 copy 2">
      <g id="Layer_6_copy" data-name="Layer 6 copy">
        <path id="path6226" d="M226,166c-2.65-.07-4.86,1.28-4.86,3v15.91c-52.7.77-98,24.31-109.57,57.14C99.88,275.4,126.23,309.53,175,324.07s106.89,5.63,139.83-21.43,31.92-65.07-2.46-91.39c-4.24-3.38-12.15.79-7.69,4.06,31.43,24.06,32.36,58.71,2.25,83.44s-83.13,32.86-127.67,19.56-68.57-44.4-57.85-74.92c10.52-30,51.74-51.39,99.81-52.16v15.85c0,2.31,4,3.73,7.07,2.54l50-19.06c3-1.15,3-3.93,0-5.09l-50-19.06A6.73,6.73,0,0,0,226,166Z" style="fill: #333"/>
      </g>
      <g>
        <g>
          <path d="M149.94,113.46H79V59.34a35.48,35.48,0,0,1,34.57-35.47h.92a35.48,35.48,0,0,1,35.48,35.48Z" style="fill: #666"/>
          <path d="M149.94,115.87H79a2.41,2.41,0,0,1-2.41-2.41V59.34a37.89,37.89,0,0,1,36.91-37.87h1a37.93,37.93,0,0,1,37.89,37.89v54.12A2.41,2.41,0,0,1,149.94,115.87Zm-68.56-4.81h66.16V59.34a33.11,33.11,0,0,0-33.08-33.08h-.85A33.08,33.08,0,0,0,81.38,59.34Z" style="fill: #333"/>
        </g>
        <g>
          <path d="M134.24,103l.23.06a35.5,35.5,0,0,1,27.09,34.48v34H67.34v-34a35.49,35.49,0,0,1,27.09-34.48l.23-.06" style="fill: #e6e6e6"/>
          <path d="M86.2,121.88v49.71H67.34v-34a35.43,35.43,0,0,1,15.53-29.34A29.55,29.55,0,0,1,86.2,121.88Z" style="fill: #ffd3ae"/>
          <path d="M161.57,137.56v34H142.71V121.88A29.55,29.55,0,0,1,146,108.22,35.44,35.44,0,0,1,161.57,137.56Z" style="fill: #ffd3ae"/>
          <path d="M164.77,171.59H160V140c0-10.36-4.68-20.11-13.17-27.47A49,49,0,0,0,114.56,101c-25,0-45.4,17.5-45.4,39v31.55H64.34V140c0-24.17,22.53-43.82,50.22-43.82a53.85,53.85,0,0,1,35.38,12.72c9.57,8.29,14.83,19.33,14.83,31.11Z" style="fill: #333"/>
          <path d="M145.12,171.59h-4.81V121.88a32.17,32.17,0,0,1,3.59-14.77l4.27,2.22a27,27,0,0,0-3.05,12.55Z" style="fill: #333"/>
          <path d="M153.55,166a2.41,2.41,0,0,1-2.41-2.41V134.31a2.41,2.41,0,1,1,4.81,0v29.27A2.41,2.41,0,0,1,153.55,166Z" style="fill: #fff"/>
          <path d="M84.85,113A35.37,35.37,0,0,0,75,137.56v33.23H67.34V137.56a35.43,35.43,0,0,1,15.53-29.34A29.59,29.59,0,0,1,84.85,113Z" style="fill: #333;opacity: 0.4399999976158142;isolation: isolate"/>
          <path d="M88.6,171.59H83.79V121.88a27,27,0,0,0-3.05-12.55L85,107.11a32.17,32.17,0,0,1,3.59,14.77Z" style="fill: #333"/>
          <g>
            <path d="M128.28,162H100.63a16.86,16.86,0,0,1-16.84-16.84H88.6a12,12,0,0,0,12,12h27.65a12,12,0,0,0,12-12h4.81A16.86,16.86,0,0,1,128.28,162Z" style="fill: #333"/>
            <path d="M128.28,154.76a2.41,2.41,0,0,1,0-4.81,4.82,4.82,0,0,0,4.81-4.81,2.41,2.41,0,1,1,4.81,0A9.63,9.63,0,0,1,128.28,154.76Z" style="fill: #fff"/>
          </g>
          <g>
            <path d="M130.53,99.43v26.2a10.68,10.68,0,0,1-10.68,10.68H107.53a10.68,10.68,0,0,1-10.68-10.68V99.43a35.54,35.54,0,0,0,33.68,0Z" style="fill: #ffd3ae"/>
            <path d="M119.85,138.72H107.53a13.1,13.1,0,0,1-13.09-13.09V99.43h4.81v26.2a8.28,8.28,0,0,0,8.28,8.28h12.32a8.28,8.28,0,0,0,8.28-8.28V99.43h4.81v26.2A13.1,13.1,0,0,1,119.85,138.72Z" style="fill: #333"/>
            <path d="M113.69,138.72a2.41,2.41,0,0,1-2.41-2.41v-6a2.41,2.41,0,1,1,4.81,0v6A2.41,2.41,0,0,1,113.69,138.72Z" style="fill: #333"/>
            <path d="M132.06,98.63c-.47.9-1,6.44-1.53,7.29a35.64,35.64,0,0,1-9.87,10.18l-.23.16a35.32,35.32,0,0,1-19.79,6c-2.1,0-2.45-1.89-3.78-2.91V99.43c4.76,2.37,11.72,4.81,17.4,4.81C121.42,104.24,126.49,102.27,132.06,98.63Z" style="fill: #333;opacity: 0.4399999976158142;isolation: isolate"/>
          </g>
          <g>
            <path d="M167.18,174H61.83a2.41,2.41,0,1,1,0-4.81H167.18a2.41,2.41,0,0,1,0,4.81Z" style="fill: #333"/>
            <path d="M180,174H175.6a2.41,2.41,0,1,1,0-4.81H180a2.41,2.41,0,1,1,0,4.81Z" style="fill: #333"/>
            <path d="M53.32,174H48.91a2.41,2.41,0,0,1,0-4.81h4.41a2.41,2.41,0,1,1,0,4.81Z" style="fill: #333"/>
          </g>
        </g>
        <g>
          <g>
            <circle cx="82.15" cy="58.53" r="11.18" style="fill: #ffd3ae"/>
            <circle cx="146.76" cy="58.53" r="11.18" style="fill: #ffd3ae"/>
          </g>
          <g>
            <path d="M82.16,72.12A13.59,13.59,0,1,1,95.74,58.53,13.6,13.6,0,0,1,82.16,72.12Zm0-22.36a8.78,8.78,0,1,0,8.78,8.78A8.79,8.79,0,0,0,82.16,49.76Z" style="fill: #333"/>
            <path d="M146.76,72.12a13.59,13.59,0,1,1,13.59-13.59A13.6,13.6,0,0,1,146.76,72.12Zm0-22.36a8.78,8.78,0,1,0,8.78,8.78A8.79,8.79,0,0,0,146.76,49.76Z" style="fill: #333"/>
          </g>
        </g>
        <path d="M134.25,97a35.51,35.51,0,0,1-39.58,0l-.23-.16A35.44,35.44,0,0,1,79,67.56V37.89A35.48,35.48,0,0,1,114.46,2.41h0a35.48,35.48,0,0,1,35.48,35.48V67.56a35.44,35.44,0,0,1-15.46,29.3Z" style="fill: #ffd3ae"/>
        <path d="M107.1,97a35.36,35.36,0,0,0,13.58,5.48,35.61,35.61,0,0,1-26-5.48l-.23-.16A35.44,35.44,0,0,1,79,67.56v-9c0-55.73,22-55,22-53.89L96.82,11a28.38,28.38,0,0,0-.38,30.56c1,1.56,4.07,6.93,4,8.17a9.12,9.12,0,0,1-8.55,8.81H91.4v9a35.44,35.44,0,0,0,15.46,29.3Z" style="fill: #333;opacity: 0.4399999976158142;isolation: isolate"/>
        <path d="M79.89,56.41l-.32.12H79V37.89A35.48,35.48,0,0,1,113.54,2.42l.91.39V31.5A80.06,80.06,0,0,1,79.89,56.41Z" style="fill: #666"/>
        <path d="M114.45,2.81V6.54A35.47,35.47,0,0,0,95.61,37.89V48.52a79.91,79.91,0,0,1-15.72,7.89l-.32.12H79V37.89A35.48,35.48,0,0,1,113.54,2.42Z" style="fill: #333;opacity: 0.4399999976158142;isolation: isolate"/>
        <path d="M149,56.41A80.05,80.05,0,0,1,114.45,31.5V2.81l-.91-.39h.92a35.48,35.48,0,0,1,35.48,35.48V56.53h-.61Z" style="fill: #666"/>
        <path d="M142.72,43.7a2.41,2.41,0,0,1-2.41-2.41V37.89a25.87,25.87,0,0,0-11.38-21.41,2.41,2.41,0,1,1,2.7-4,30.67,30.67,0,0,1,13.48,25.39v3.41A2.41,2.41,0,0,1,142.72,43.7Z" style="fill: #fff"/>
        <path d="M123.85,13.63a2.4,2.4,0,0,1-.8-.14c-.65-.23-1.32-.44-2-.61a2.41,2.41,0,0,1,1.23-4.65c.79.21,1.59.45,2.36.73a2.41,2.41,0,0,1-.8,4.67Z" style="fill: #fff"/>
        <path d="M114.45,105.44A37.71,37.71,0,0,1,93.33,99l-.29-.2A37.9,37.9,0,0,1,76.57,67.56V37.89A37.89,37.89,0,0,1,113.48,0h1a37.93,37.93,0,0,1,37.89,37.89V67.56a37.9,37.9,0,0,1-16.48,31.26l-.17.12,0,0-.06,0A37.72,37.72,0,0,1,114.45,105.44Zm0-100.63h-.85A33.08,33.08,0,0,0,81.38,37.89V67.56A33.09,33.09,0,0,0,95.79,94.87l.12.08L96,95l0,0a33.1,33.1,0,0,0,36.87,0l.14-.09,0,0,.06,0a33.09,33.09,0,0,0,14.41-27.31V37.89A33.11,33.11,0,0,0,114.46,4.81Z" style="fill: #333"/>
        <path d="M80.42,58.78l-1.69-4.5.32-.12A77.72,77.72,0,0,0,112.58,30a2.41,2.41,0,0,1,3.75,0,77.7,77.7,0,0,0,33.53,24.16l.33.13-1.71,4.5-.32-.12a82.51,82.51,0,0,1-33.71-23.41A82.53,82.53,0,0,1,80.73,58.67Z" style="fill: #333"/>
        <rect x="112.05" y="2.81" width="4.81" height="28.69" style="fill: #333"/>
        <path d="M142.72,77a2.41,2.41,0,0,1-2.41-2.41V62.94a2.41,2.41,0,1,1,4.81,0V74.57A2.41,2.41,0,0,1,142.72,77Z" style="fill: #fff"/>
      </g>
      <g id="Layer_4_copy_2" data-name="Layer 4 copy 2">
        <g>
          <path d="M84.57,276l.22.05a34.22,34.22,0,0,1,26.11,33.23v32.8H20.09v-32.8A34.21,34.21,0,0,1,46.2,276.05l.22-.05" style="fill: #a5536e"/>
          <path d="M84.8,275.39v.76a19.3,19.3,0,1,1-38.59,0l-.6-4.77c1.75-.71,4.16,2.77,6,2.26a34.07,34.07,0,0,0,13.88,2.93c5,0,14.87-4.05,19.13-6C86.47,271.1,83.07,274.69,84.8,275.39Z" style="fill: #e8b691"/>
          <path d="M84.2,271a34.34,34.34,0,0,1-11,12.35l-.22.15a34,34,0,0,1-19.07,5.81c-2.51,0-2.42-2.81-4.78-3.33-.26-1.25-2.93-2.89-2.93-4.21v-11l.22-.05A34.23,34.23,0,0,0,84.2,271Z" style="fill: #333;opacity: 0.4399999976158142;isolation: isolate"/>
          <g>
            <path d="M78.83,328.18H52.18a16.25,16.25,0,0,1-16.23-16.23h4.64a11.61,11.61,0,0,0,11.59,11.59H78.83a11.61,11.61,0,0,0,11.59-11.59h4.64A16.25,16.25,0,0,1,78.83,328.18Z" style="fill: #333"/>
            <path d="M78.83,321.22a2.32,2.32,0,0,1,0-4.64,4.64,4.64,0,0,0,4.64-4.64,2.32,2.32,0,1,1,4.64,0A9.28,9.28,0,0,1,78.83,321.22Z" style="fill: #fff"/>
          </g>
          <path d="M111.68,334.92v7.18H92.74V311.95l16-14.43a35.15,35.15,0,0,1,3,14.16v23.23Z" style="fill: #ffd3ae"/>
          <path d="M38.26,317v25.12H19.51V311.68a35.17,35.17,0,0,1,2.93-14l15.82,14.31Z" style="fill: #ffd3ae"/>
          <path d="M38.27,314.27a2.31,2.31,0,0,1-1.57-.62L20.89,299.36A2.32,2.32,0,1,1,24,295.92l15.82,14.31,0,0a2.32,2.32,0,0,1-1.6,4Z" style="fill: #333"/>
          <path d="M92.74,314.27a2.32,2.32,0,0,1-1.56-4l16-14.43a2.32,2.32,0,1,1,3.11,3.44l-16,14.43A2.31,2.31,0,0,1,92.74,314.27Z" style="fill: #333"/>
          <path d="M65.5,297.76c-11.92,0-21.62-11-21.62-24.59h4.64c0,11,7.62,20,17,20s17-9,17-20v-.88h4.64v.88C87.12,286.73,77.42,297.76,65.5,297.76Z" style="fill: #333"/>
          <path d="M95.05,342.09H90.42V294.17a30.56,30.56,0,0,1,3.21-13.72l.21-.41,0-.09L98,282.06l-.05.1-.15.3,0,0a26,26,0,0,0-2.73,11.68v47.92Z" style="fill: #333"/>
          <path d="M40.58,342.09H35.95V294.17a26,26,0,0,0-2.68-11.58l0,0c-.08-.16-.16-.32-.24-.48l4.11-2.14c.11.21.22.42.31.63a30.57,30.57,0,0,1,3.15,13.61v47.92Z" style="fill: #333"/>
          <path d="M116.32,344.41H14.77a2.32,2.32,0,0,1,0-4.64H116.32a2.32,2.32,0,0,1,0,4.64Z" style="fill: #333"/>
          <path d="M128.68,344.41h-4.25a2.32,2.32,0,1,1,0-4.64h4.25a2.32,2.32,0,1,1,0,4.64Z" style="fill: #333"/>
          <path d="M6.57,344.41H2.32a2.32,2.32,0,0,1,0-4.64H6.57a2.32,2.32,0,0,1,0,4.64Z" style="fill: #333"/>
          <path d="M103.18,336.68a2.32,2.32,0,0,1-2.32-2.32v-22a2.32,2.32,0,0,1,4.64,0v22A2.32,2.32,0,0,1,103.18,336.68Z" style="fill: #fff"/>
          <path d="M37,285.64a34.09,34.09,0,0,0-9.49,23.65v32H20.09v-32a34.15,34.15,0,0,1,15-28.28A28.52,28.52,0,0,1,37,285.64Z" style="fill: #333;opacity: 0.4399999976158142;isolation: isolate"/>
          <path d="M84.57,270.2a34.22,34.22,0,0,1-38.15,0L46.2,270a34.16,34.16,0,0,1-14.9-28.24v-28.6A34.2,34.2,0,0,1,65.5,179h0a34.2,34.2,0,0,1,34.2,34.2v28.6A34.16,34.16,0,0,1,84.8,270Z" style="fill: #ffd3ae"/>
          <path d="M58.41,270.2a34.08,34.08,0,0,0,13.08,5.29,34.32,34.32,0,0,1-25.06-5.29L46.2,270a34.16,34.16,0,0,1-14.9-28.24v-8.69c0-53.71,21.21-53.06,21.21-51.94l-4,6.11c-5.94,9,38.89,17.23,40,27.67.48,4.57-25.36-5.51-27.81-1.55C57,219.39,52,223.9,52,224.61a8.79,8.79,0,0,1-8.25,8.49h0a.7.7,0,0,0-.62.47L42,237a9.83,9.83,0,0,0,.73,7.84C48.27,255,50.14,264.54,58.18,270Z" style="fill: #333;opacity: 0.4399999976158142;isolation: isolate"/>
          <path d="M83.86,220s11.59,12.75,6.18,28.6c-2.7,7.89,12.76-10.43,12.76-10.43l-12-17.78Z" style="fill: #333;opacity: 0.4399999976158142;isolation: isolate"/>
          <path d="M95.3,182.5c6.39,4.21,5.45,17.68,5.22,20.1a81.59,81.59,0,0,0-70,0c-.22-2.43-1.17-15.89,5.22-20.1,0,0-1.48-6.57,2.59-9.27s12.77-8.89,27.21-9.27c14.43.39,23.13,6.57,27.2,9.27S95.3,182.5,95.3,182.5Z" style="fill: #f7774b"/>
          <g style="opacity: 0.4399999976158142">
            <path d="M50.23,182.5s-1.48-6.57,2.59-9.27a49.24,49.24,0,0,1,19.94-8.55,49.58,49.58,0,0,0-7.26-.72c-14.44.39-23.14,6.57-27.21,9.27s-2.59,9.27-2.59,9.27c-6.39,4.21-5.45,17.68-5.22,20.1a81.54,81.54,0,0,1,14.36-5.23C45,192.33,45.94,185.33,50.23,182.5Z" style="fill: #333"/>
          </g>
          <path d="M102.81,203.73v14.12a81.59,81.59,0,0,0-74.62,0V203.73c.76-.39,1.52-.77,2.29-1.13a81.59,81.59,0,0,1,70,0C101.29,203,102.05,203.34,102.81,203.73Z" style="fill: #f7774b"/>
          <g style="opacity: 0.4399999976158142">
            <path d="M38.22,199.64l1.52-.76a81.57,81.57,0,0,0-9.26,3.72c-.77.36-1.53.74-2.29,1.13v14.12a81.61,81.61,0,0,1,10-4.33Z" style="fill: #333"/>
          </g>
          <path d="M28.17,202.81c-.35-3.77-.94-15.89,5-21.31C33,179,33,173.94,37,171.29l.49-.33a50,50,0,0,1,27.94-9.33h.12A50,50,0,0,1,93.5,171l.49.33c4,2.65,4.05,7.69,3.8,10.21,2.59,2.33,4.23,6.17,4.9,11.42a47.79,47.79,0,0,1,.14,9.89l-4.62-.43c.49-5.32.16-15.09-4.19-18A2.32,2.32,0,0,1,93,182s1-5.08-1.61-6.83l-.5-.33a45.13,45.13,0,0,0-25.42-8.55,45.13,45.13,0,0,0-25.43,8.55l-.5.33C36.94,176.9,38,181.94,38,182a2.33,2.33,0,0,1-1,2.44c-4.35,2.87-4.68,12.63-4.19,18Z" style="fill: #333"/>
          <path d="M35.7,184.82a2.32,2.32,0,0,1-.79-4.5L41.33,178a2.32,2.32,0,1,1,1.58,4.36l-6.42,2.32A2.32,2.32,0,0,1,35.7,184.82Z" style="fill: #333"/>
          <path d="M95.3,184.82a2.31,2.31,0,0,1-.79-.14l-6.42-2.32A2.32,2.32,0,1,1,89.67,178l6.42,2.32a2.32,2.32,0,0,1-.79,4.5Z" style="fill: #333"/>
          <path d="M74.66,209.34a81.46,81.46,0,0,1,28.16,8.51s4.61,4.83,3.45,13.33-7.73,19.32-3.86,29.37c3.65,9.5-2,23.25-2.64,24.72l-.06-.05c-.49-.47-1-.94-1.52-1.38a47,47,0,0,0-13.4-8.08c.22-1.86,2.57-4.07,2.26-7.38-.6-6.58-.39-14.62,3-19.8,6.57-10,7-15.84,3.86-17.39C81.26,224.32,75.37,211,74.66,209.34Z" style="fill: #f7b239"/>
          <path d="M37.1,231.19c-3.09,1.55-2.71,7.34,3.86,17.39,3.38,5.17,3.59,13.22,3,19.8-.31,3.4,1.41,5.41,1.64,7.25-5.79,2.3-10.1,5.73-14.3,9.78,0,0-6.57-14.81-2.7-24.86s-2.71-20.87-3.86-29.37,3.45-13.33,3.45-13.33a81.49,81.49,0,0,1,28.16-8.51C55.63,211,49.74,224.32,37.1,231.19Z" style="fill: #f7b239"/>
          <path d="M65.5,278.33a36.42,36.42,0,0,1-20.37-6.2l-.28-.19c-.84-.57-1.63-1.17-2.36-1.77l2.94-3.59c.64.53,1.34,1,2.09,1.56l.11.08.06,0,0,0a31.85,31.85,0,0,0,35.53,0l.13-.09,0,0,.06,0c.72-.49,1.42-1,2.08-1.56l2.94,3.59c-.76.62-1.56,1.22-2.38,1.78l-.16.11,0,0-.06,0a36.4,36.4,0,0,1-20.37,6.2Z" style="fill: #333"/>
          <path d="M102.81,220.17a2.32,2.32,0,0,1-1.06-.26,79.3,79.3,0,0,0-72.5,0,2.32,2.32,0,0,1-3.38-2.06V206.23a6.33,6.33,0,0,1,3.57-5.7l0,0a83.58,83.58,0,0,1,72,0l.05,0a6.33,6.33,0,0,1,3.56,5.7v11.63a2.32,2.32,0,0,1-2.32,2.32ZM65.5,206.5a84.06,84.06,0,0,1,35,7.64v-7.92a1.67,1.67,0,0,0-.94-1.52l-.06,0a79,79,0,0,0-68,0l-.05,0a1.67,1.67,0,0,0-.94,1.52v7.92a84.06,84.06,0,0,1,35-7.64Z" style="fill: #333"/>
          <path d="M29.18,286.35c-.28-.64-6.91-15.81-2.75-26.63,2.36-6.13.29-12.78-1.7-19.22a57.72,57.72,0,0,1-2.29-9c-1.3-9.5,3.86-15,4.08-15.25l3.37,3.19c-.16.17-3.83,4.23-2.85,11.43a54.59,54.59,0,0,0,2.13,8.26c2.13,6.85,4.54,14.62,1.6,22.26-3.47,9,2.6,22.95,2.66,23.08Z" style="fill: #333"/>
          <path d="M44,275.76c-.13-.31-.36-.7-.59-1.12a10.63,10.63,0,0,1-1.8-6.48c.74-8.22-.17-14.55-2.63-18.32-4.92-7.52-6.88-13.27-5.85-17.1A5.53,5.53,0,0,1,36,229.13c12-6.53,17.58-19.25,18.18-20.69l0-.06,0-.07L58.59,210s0,.1-.12.29c-.72,1.72-6.93,15.72-20.26,23l-.07,0a.93.93,0,0,0-.48.69c-.24.88-.57,4.46,5.25,13.36,3.08,4.72,4.21,11.87,3.36,21.27a6.43,6.43,0,0,0,1.22,3.77,16.18,16.18,0,0,1,.82,1.59Z" style="fill: #333"/>
          <path d="M101.81,286.36l-4.23-1.91,0-.1c2.23-5.23,5.3-16,2.6-23-2.94-7.63-.52-15.4,1.6-22.26a54.64,54.64,0,0,0,2.13-8.26c1-7.2-2.69-11.26-2.85-11.43l3.37-3.19c.22.23,5.37,5.75,4.08,15.25a57.72,57.72,0,0,1-2.29,9c-2,6.43-4.06,13.09-1.7,19.22,1.7,4.41,1.83,10,.39,16.69a57.78,57.78,0,0,1-3.06,9.77Z" style="fill: #333"/>
          <path d="M82.53,276.91a4.37,4.37,0,0,1,0-1.45,9.25,9.25,0,0,1,1.13-3,7,7,0,0,0,1.12-3.83c-.85-9.4.28-16.56,3.36-21.28,5.82-8.9,5.49-12.47,5.25-13.36a.92.92,0,0,0-.48-.69l-.07,0C79.46,226,73.25,212,72.53,210.26c-.09-.19-.12-.29-.12-.29l4.34-1.63,0,0,0,.06c.6,1.43,6.19,14.16,18.18,20.69a5.53,5.53,0,0,1,2.85,3.61c1,3.83-.93,9.59-5.85,17.11-2.46,3.77-3.37,10.1-2.63,18.32a11.19,11.19,0,0,1-1.61,6.36,7.31,7.31,0,0,0-.66,1.51s0,0,0-.06Z" style="fill: #333"/>
          <path d="M114,342.09h-4.64V311.68a32.79,32.79,0,0,0-2.79-13.23,37.25,37.25,0,0,0-9.9-13.24c-.77-.67-1.55-1.3-2.34-1.88a44.94,44.94,0,0,0-10.38-5.79l1.71-4.31a49.57,49.57,0,0,1,11.44,6.38c.87.65,1.75,1.35,2.6,2.1a41.84,41.84,0,0,1,11.11,14.89A37.39,37.39,0,0,1,114,311.68Z" style="fill: #333"/>
          <path d="M21.83,342.09H17.2V311.68a37.41,37.41,0,0,1,3.12-15,42.93,42.93,0,0,1,13.63-17,49.77,49.77,0,0,1,11.39-6.41l1.73,4.3a45.13,45.13,0,0,0-10.33,5.81,38.29,38.29,0,0,0-12.17,15.14,32.8,32.8,0,0,0-2.74,13.12v30.41Z" style="fill: #333"/>
          <path d="M100.09,229.64a2.32,2.32,0,0,1-2.32-2.32,3.43,3.43,0,0,0-1.46-3,2.32,2.32,0,1,1,2.15-4.11,8,8,0,0,1,3.95,7.08A2.32,2.32,0,0,1,100.09,229.64Z" style="fill: #fff"/>
          <path d="M96.22,277.17A2.32,2.32,0,0,1,94,274.28c1.87-7.39-1.08-11.83-1.2-12a2.32,2.32,0,0,1,3.8-2.66c.18.25,4.32,6.26,1.9,15.82A2.32,2.32,0,0,1,96.22,277.17Z" style="fill: #fff"/>
          <path d="M93.9,194.48a2.32,2.32,0,0,1-2.24-1.71l-1.16-4.25A2.32,2.32,0,1,1,95,187.3l1.16,4.25a2.32,2.32,0,0,1-2.24,2.93Z" style="fill: #fff"/>
        </g>
      </g>
      <g id="Layer_5_copy_2" data-name="Layer 5 copy 2">
        <g>
          <path d="M353.82,103.1l.23.06a35.53,35.53,0,0,1,27.12,34.51v34.07H286.86V137.67A35.52,35.52,0,0,1,314,103.16l.23-.06" style="fill: #f7774b"/>
          <path d="M305.73,122v49.76H286.86V137.67a35.47,35.47,0,0,1,15.55-29.37A29.57,29.57,0,0,1,305.73,122Z" style="fill: #ffd3ae"/>
          <path d="M381.17,137.67v34.07H362.3V122a29.57,29.57,0,0,1,3.33-13.68A35.47,35.47,0,0,1,381.17,137.67Z" style="fill: #ffd3ae"/>
          <path d="M354.06,103.16v5.54a20,20,0,1,1-40.08,0v-5.54l.23-.06a35.54,35.54,0,0,0,39.62,0Z" style="fill: #ffd3ae"/>
          <path d="M353.43,103.36A35.66,35.66,0,0,1,342,116.18l-.23.16a35.35,35.35,0,0,1-19.81,6c-2.61,0-2.51-2.92-5-3.46-.26-1.3-3-3-3-4.37V103.16l.23-.06a35.54,35.54,0,0,0,39.22.26Z" style="fill: #333;opacity: 0.4399999976158142;isolation: isolate"/>
          <path d="M334,131.14a22.47,22.47,0,0,1-22.45-22.45v-5.76h4.82v5.76a17.63,17.63,0,1,0,35.27,0v-5.76h4.82v5.76A22.47,22.47,0,0,1,334,131.14Z" style="fill: #333"/>
          <path d="M381.17,137.67v8H362.3V122a29.57,29.57,0,0,1,3.33-13.68A35.47,35.47,0,0,1,381.17,137.67Z" style="fill: #f7774b"/>
          <path d="M305.73,122v23.68H286.86v-8a35.47,35.47,0,0,1,15.55-29.37A29.57,29.57,0,0,1,305.73,122Z" style="fill: #f7774b"/>
          <path d="M364.71,171.73h-4.82V122a32.2,32.2,0,0,1,3.6-14.79l4.27,2.22A27,27,0,0,0,364.71,122Z" style="fill: #333"/>
          <rect x="362.84" y="143.24" width="18.87" height="4.82" style="fill: #333"/>
          <path d="M373.15,166.11a2.41,2.41,0,0,1-2.41-2.41V152.87a2.41,2.41,0,1,1,4.82,0v10.83A2.41,2.41,0,0,1,373.15,166.11Z" style="fill: #fff"/>
          <g>
            <path d="M304.39,113.11a35.4,35.4,0,0,0-9.86,24.55v8h-7.67v-8a35.47,35.47,0,0,1,15.55-29.37A29.58,29.58,0,0,1,304.39,113.11Z" style="fill: #333;opacity: 0.4399999976158142;isolation: isolate"/>
            <rect x="287.29" y="145.65" width="6.67" height="26.08" style="fill: #333;opacity: 0.4399999976158142;isolation: isolate"/>
          </g>
          <path d="M381.17,174.14H286.86a2.41,2.41,0,0,1-2.41-2.41V137.67a37.93,37.93,0,0,1,28.94-36.85l.16,0h0l1.22,4.66-.19,0h-.09a33.12,33.12,0,0,0-25.27,32.17v31.66h89.5V137.67a33.12,33.12,0,0,0-25.28-32.17h-.09l-.19,0,1.22-4.66-.61,2.33.61-2.33h0l.16,0a37.94,37.94,0,0,1,28.94,36.85v34.07A2.41,2.41,0,0,1,381.17,174.14Z" style="fill: #333"/>
          <path d="M308.14,171.73h-4.82V122a27,27,0,0,0-3.06-12.57l4.27-2.22a32.2,32.2,0,0,1,3.6,14.79Z" style="fill: #333"/>
          <rect x="286.86" y="143.24" width="18.87" height="4.82" style="fill: #333"/>
          <g>
            <path d="M335.15,172.17a12,12,0,1,1,8.51-20.55h0a12,12,0,0,1-8.51,20.55Zm0-19.26a7.22,7.22,0,1,0,5.11,2.12h0A7.17,7.17,0,0,0,335.15,152.91Z" style="fill: #fff"/>
            <path d="M323.8,173a3.65,3.65,0,0,1-2.7-1.07c-2.06-2.06-1.16-5.64,2.74-11a2.41,2.41,0,0,1,3.88,2.85,23.17,23.17,0,0,0-2.39,3.87,20.25,20.25,0,0,0,2.88-1.68A54.18,54.18,0,0,0,341,153.2a20.3,20.3,0,0,0,1.68-2.88,23.16,23.16,0,0,0-3.87,2.39,2.41,2.41,0,1,1-2.85-3.88c5.32-3.9,8.9-4.8,11-2.74,1.9,1.9,1.27,5.12-1.94,9.82A58.93,58.93,0,0,1,330.93,170C328,172,325.62,173,323.8,173Z" style="fill: #fff"/>
          </g>
          <g>
            <path d="M386.79,174.14H281.34a2.41,2.41,0,1,1,0-4.82H386.79a2.41,2.41,0,1,1,0,4.82Z" style="fill: #333"/>
            <path d="M399.63,174.14h-4.41a2.41,2.41,0,1,1,0-4.82h4.41a2.41,2.41,0,0,1,0,4.82Z" style="fill: #333"/>
            <path d="M272.82,174.14h-4.41a2.41,2.41,0,1,1,0-4.82h4.41a2.41,2.41,0,0,1,0,4.82Z" style="fill: #333"/>
          </g>
        </g>
        <g id="Layer_22" data-name="Layer 22">
          <g>
            <g>
              <circle cx="301.68" cy="64.59" r="11.19" style="fill: #ffd3ae"/>
              <circle cx="366.35" cy="64.59" r="11.19" style="fill: #ffd3ae"/>
            </g>
            <g>
              <path d="M301.68,78.19a13.6,13.6,0,1,1,13.6-13.6A13.62,13.62,0,0,1,301.68,78.19Zm0-22.38a8.78,8.78,0,1,0,8.78,8.78A8.79,8.79,0,0,0,301.68,55.8Z" style="fill: #333"/>
              <path d="M366.35,78.19a13.6,13.6,0,1,1,13.6-13.6A13.62,13.62,0,0,1,366.35,78.19Zm0-22.38a8.78,8.78,0,1,0,8.78,8.78A8.79,8.79,0,0,0,366.35,55.8Z" style="fill: #333"/>
            </g>
          </g>
        </g>
        <g id="Layer_21" data-name="Layer 21">
          <path d="M353.82,103.1a35.54,35.54,0,0,1-39.62,0l-.23-.16A35.47,35.47,0,0,1,298.5,73.62V43.92A35.51,35.51,0,0,1,334,8.41h0a35.51,35.51,0,0,1,35.51,35.51v29.7a35.47,35.47,0,0,1-15.47,29.32Z" style="fill: #ffd3ae"/>
          <path d="M360.83,55.36A2.41,2.41,0,0,1,358.42,53V43.17A24.25,24.25,0,0,0,347,22.45l-.64-.38a2.41,2.41,0,1,1,2.37-4.19l.77.45a29.09,29.09,0,0,1,13.77,24.83V53A2.41,2.41,0,0,1,360.83,55.36Z" style="fill: #fff"/>
          <path d="M334,111.54a37.75,37.75,0,0,1-21.15-6.44l-.07,0-.21-.14a37.93,37.93,0,0,1-16.49-31.29V43.92a37.92,37.92,0,0,1,75.84,0v29.7a37.93,37.93,0,0,1-16.49,31.29l-.22.15-.05,0h0A37.75,37.75,0,0,1,334,111.54Zm0-100.72a33.14,33.14,0,0,0-33.11,33.11v29.7A33.12,33.12,0,0,0,315.34,101l.07,0,.08.06.08.05a33.13,33.13,0,0,0,36.91,0l.06,0,.08-.06.07,0a33.12,33.12,0,0,0,14.43-27.34V43.92A33.14,33.14,0,0,0,334,10.82Z" style="fill: #333"/>
          <g>
            <path d="M334,16.43a27.52,27.52,0,0,1,5.43.54" style="fill: #333"/>
            <path d="M339.45,19.38a2.42,2.42,0,0,1-.48,0,25.2,25.2,0,0,0-5-.49A2.41,2.41,0,1,1,334,14a30,30,0,0,1,5.9.59,2.41,2.41,0,0,1-.47,4.77Z" style="fill: #fff"/>
          </g>
          <path d="M326.65,103.1a35.39,35.39,0,0,0,13.59,5.49,35.64,35.64,0,0,1-26-5.49l-.23-.16A35.47,35.47,0,0,1,298.5,73.62v-9c0-55.78,22-55.1,22-53.94L316.36,17A28.41,28.41,0,0,0,316,47.58c1,1.56,4.07,6.94,4,8.17a9.13,9.13,0,0,1-8.56,8.82h-.49v9a35.47,35.47,0,0,0,15.47,29.32Z" style="fill: #333;opacity: 0.4399999976158142;isolation: isolate"/>
        </g>
      </g>
      <g>
        <g>
          <g>
            <circle cx="345.36" cy="234.74" r="11.18" style="fill: #ffd3ae"/>
            <circle cx="409.97" cy="234.74" r="11.18" style="fill: #ffd3ae"/>
          </g>
          <g>
            <path d="M345.36,248.32A13.59,13.59,0,1,1,359,234.74,13.6,13.6,0,0,1,345.36,248.32Zm0-22.36a8.78,8.78,0,1,0,8.78,8.78A8.79,8.79,0,0,0,345.36,226Z" style="fill: #333"/>
            <path d="M410,248.32a13.59,13.59,0,1,1,13.59-13.59A13.6,13.6,0,0,1,410,248.32ZM410,226a8.78,8.78,0,1,0,8.78,8.78A8.79,8.79,0,0,0,410,226Z" style="fill: #333"/>
          </g>
        </g>
        <path d="M397.45,273.21l.23.06a35.5,35.5,0,0,1,27.09,34.48v34H330.55v-34a35.49,35.49,0,0,1,27.09-34.48l.23-.06" style="fill: #3c5cd3"/>
        <path d="M349.41,292.07v49.71H330.55v-34a35.43,35.43,0,0,1,15.53-29.34A29.55,29.55,0,0,1,349.41,292.07Z" style="fill: #ffd3ae"/>
        <path d="M424.78,307.75v34H405.92V292.07a29.55,29.55,0,0,1,3.32-13.66A35.44,35.44,0,0,1,424.78,307.75Z" style="fill: #ffd3ae"/>
        <path d="M424.78,307.75v8H405.92V292.07a29.55,29.55,0,0,1,3.32-13.66A35.44,35.44,0,0,1,424.78,307.75Z" style="fill: #3c5cd3"/>
        <path d="M349.41,292.07v23.65H330.55v-8a35.43,35.43,0,0,1,15.53-29.34A29.55,29.55,0,0,1,349.41,292.07Z" style="fill: #3c5cd3"/>
        <path d="M408.33,341.78h-4.81V292.07a32.17,32.17,0,0,1,3.59-14.77l4.27,2.22a27,27,0,0,0-3.05,12.55Z" style="fill: #333"/>
        <rect x="406.46" y="313.32" width="18.86" height="4.81" style="fill: #333"/>
        <path d="M416.76,336.17a2.41,2.41,0,0,1-2.41-2.41V322.94a2.41,2.41,0,0,1,4.81,0v10.82A2.41,2.41,0,0,1,416.76,336.17Z" style="fill: #fff"/>
        <g>
          <path d="M348.06,283.22a35.37,35.37,0,0,0-9.85,24.53v8h-7.67v-8a35.43,35.43,0,0,1,15.53-29.34A29.55,29.55,0,0,1,348.06,283.22Z" style="fill: #333;opacity: 0.4399999976158142;isolation: isolate"/>
          <rect x="330.98" y="315.72" width="6.67" height="26.06" style="fill: #333;opacity: 0.4399999976158142;isolation: isolate"/>
        </g>
        <path d="M424.78,344.19H330.55a2.41,2.41,0,0,1-2.41-2.41v-34a37.9,37.9,0,0,1,28.91-36.81l.16,0h0l1.23,4.65-.19,0h-.09A33.09,33.09,0,0,0,333,307.75v31.63h89.42V307.75a33.09,33.09,0,0,0-25.25-32.14H397l-.19,0,1.22-4.65-.61,2.33.61-2.33h0l.16,0a37.9,37.9,0,0,1,28.92,36.81v34A2.41,2.41,0,0,1,424.78,344.19Z" style="fill: #333"/>
        <path d="M351.81,341.78H347V292.07a27,27,0,0,0-3.05-12.55l4.27-2.22a32.17,32.17,0,0,1,3.59,14.77Z" style="fill: #333"/>
        <rect x="330.55" y="313.32" width="18.86" height="4.81" style="fill: #333"/>
        <path d="M397.45,273.21a35.51,35.51,0,0,1-39.58,0l-.23-.16a35.44,35.44,0,0,1-15.46-29.3V214.09a35.48,35.48,0,0,1,35.48-35.48h0a35.48,35.48,0,0,1,35.48,35.48v29.67a35.44,35.44,0,0,1-15.46,29.3Z" style="fill: #ffd3ae"/>
        <path d="M370.3,273.21a35.36,35.36,0,0,0,13.58,5.48,35.61,35.61,0,0,1-26-5.48l-.23-.16a35.44,35.44,0,0,1-15.46-29.3V214.09c5.29,0,9.58,7.11,9.58,1.82h0a5.52,5.52,0,0,1,7.74-5.08,46.39,46.39,0,0,0,5.61,2,5.47,5.47,0,0,0-.93,3.07v9.25a9.58,9.58,0,0,1-9.58,9.58v9a35.44,35.44,0,0,0,15.46,29.3Z" style="fill: #333;opacity: 0.4399999976158142;isolation: isolate"/>
        <path d="M413.15,214.09v8.62a30.9,30.9,0,0,1-36.78-4l-9.55-8.87a20,20,0,0,1-18.32,12h-6.31v-7.82a35.48,35.48,0,1,1,71,0Z" style="fill: #995b28"/>
        <path d="M397.47,229.43a33.9,33.9,0,0,1-3.62-.2,33.06,33.06,0,0,1-19.11-8.72l-7.25-6.73a22.36,22.36,0,0,1-19,10.53h-6.31V219.5h6.31a17.55,17.55,0,0,0,16.11-10.58,2.41,2.41,0,0,1,3.84-.81L378,217a28.66,28.66,0,0,0,33.92,3.65l2.45,4.14A33,33,0,0,1,397.47,229.43Z" style="fill: #333"/>
        <path d="M397.69,273.27v7.17a20,20,0,0,1-40,0v-7.17l.23-.06a35.51,35.51,0,0,0,39.58,0Z" style="fill: #ffd3ae"/>
        <path d="M397.06,273.47a35.63,35.63,0,0,1-11.4,12.81l-.23.16A35.55,35.55,0,0,1,358,291.65a20,20,0,0,1-.4-4V273.27l.23-.06a35.51,35.51,0,0,0,39.19.26Z" style="fill: #333;opacity: 0.4399999976158142;isolation: isolate"/>
        <g>
          <path d="M391.14,190.17A27.56,27.56,0,0,1,404.45,208" style="fill: #333"/>
          <path d="M404.45,210.42a2.41,2.41,0,0,1-2.34-1.87A25.15,25.15,0,0,0,390,192.26a2.41,2.41,0,0,1,2.37-4.19,30,30,0,0,1,14.47,19.41,2.41,2.41,0,0,1-2.35,2.94Z" style="fill: #fff"/>
        </g>
        <g>
          <path d="M377.66,186.63a27.49,27.49,0,0,1,5.42.54" style="fill: #333"/>
          <path d="M383.09,189.57a2.42,2.42,0,0,1-.48,0,25.18,25.18,0,0,0-5-.49,2.41,2.41,0,0,1,0-4.81,30,30,0,0,1,5.9.59,2.41,2.41,0,0,1-.47,4.76Z" style="fill: #fff"/>
        </g>
        <path d="M377.66,302.87a22.45,22.45,0,0,1-22.43-22.43v-7.39H360v7.39a17.62,17.62,0,1,0,35.23,0v-7.39h4.81v7.39A22.45,22.45,0,0,1,377.66,302.87Z" style="fill: #333"/>
        <g>
          <path d="M430.39,344.19H325a2.41,2.41,0,0,1,0-4.81H430.39a2.41,2.41,0,0,1,0,4.81Z" style="fill: #333"/>
          <path d="M443.22,344.19h-4.41a2.41,2.41,0,0,1,0-4.81h4.41a2.41,2.41,0,0,1,0,4.81Z" style="fill: #333"/>
          <path d="M316.52,344.19h-4.41a2.41,2.41,0,1,1,0-4.81h4.41a2.41,2.41,0,1,1,0,4.81Z" style="fill: #333"/>
        </g>
        <path d="M384.54,179.27a35.49,35.49,0,0,0-28.61,34.82v6.38a19.91,19.91,0,0,1-7.44,1.44h-6.31v-7.82a35.52,35.52,0,0,1,42.36-34.82Z" style="fill: #333;opacity: 0.4399999976158142;isolation: isolate"/>
        <path d="M377.67,281.64a37.71,37.71,0,0,1-21.13-6.44l-.07,0-.21-.14a37.9,37.9,0,0,1-16.48-31.26V214.09a37.89,37.89,0,1,1,75.77,0v29.67A37.9,37.9,0,0,1,399.07,275l-.2.14-.05,0A37.73,37.73,0,0,1,377.67,281.64Zm0-100.63a33.11,33.11,0,0,0-33.08,33.08v29.67A33.09,33.09,0,0,0,359,271.07l.07,0,.16.11a33.1,33.1,0,0,0,36.88,0l.07,0,.08-.06.06,0a33.09,33.09,0,0,0,14.41-27.31V214.09A33.07,33.07,0,0,0,377.67,181Z" style="fill: #333"/>
      </g>
    </g>
  </g>
</svg>
